<?xml version="1.0" encoding="utf-8"?>
<!-- Generator: Adobe Illustrator 24.2.3, SVG Export Plug-In . SVG Version: 6.00 Build 0)  -->
<svg version="1.1" xmlns="http://www.w3.org/2000/svg" xmlns:xlink="http://www.w3.org/1999/xlink" x="0px" y="0px"
	 viewBox="0 0 1280 1024" style="enable-background:new 0 0 1280 1024;" xml:space="preserve">
<style type="text/css">
	.st0{display:none;}
	.st1{display:inline;}
	.st2{fill:#C3DFE0;}
	.st3{fill:#A1CDCE;}
	.st4{fill:#4F5356;}
	.st5{fill:#4B4F52;}
	.st6{fill:#414649;}
	.st7{fill:#393E41;}
	.st8{fill:#3F4447;}
	.st9{fill:#454A4C;}
	.st10{fill:#575B5D;}
	.st11{display:inline;fill:#5CE24A;}
	.st12{display:inline;fill:#5CF64A;}
	.st13{fill:#CC1C24;}
	.st14{fill:#ED1C24;}
	.st15{fill:#5CE24A;}
	.st16{fill:#5CF64A;}
	.st17{fill:#F77F1E;}
	.st18{fill:#F7931E;}
	.st19{display:inline;opacity:0.39;fill:#4B4F52;}
	.st20{display:inline;fill:#5CE74A;}
	.st21{display:inline;fill:#393E41;}
</style>
<g id="Frame" class="st0">
	<g class="st1">
		<path class="st2" d="M1079,190.78v364.83L201,448.62V190.78c0-21.97,17.81-39.78,39.78-39.78h798.44
			C1061.19,151,1079,168.81,1079,190.78z"/>
	</g>
	<g class="st1">
		<path class="st3" d="M1079,555.61v167.61c0,21.97-17.81,39.78-39.78,39.78H240.78c-21.97,0-39.78-17.81-39.78-39.78v-274.6
			L1079,555.61z"/>
	</g>
</g>
<g id="Screen" class="st0">
	<g class="st1">
		<path class="st4" d="M1052,529v52.8c0,16.13-13.07,29.2-29.2,29.2H257.2c-16.13,0-29.2-13.07-29.2-29.2V529H1052z"/>
	</g>
	<g class="st1">
		<rect x="228" y="218" class="st4" width="824" height="334"/>
	</g>
	<g class="st1">
		<path class="st5" d="M1052,217.28V240H228v-22.72c0-19.49,13.07-35.28,29.2-35.28h765.6C1038.93,182,1052,197.79,1052,217.28z"/>
	</g>
	<g class="st1">
		<path class="st6" d="M1052,230c0,11,0,23,0,34c-158,17-318,12-476-6c-116-8-232-6-348,6c0-11,0-23,0-34c158-17,318-12,476,6
			C820,244,936,242,1052,230L1052,230z"/>
	</g>
	<g class="st1">
		<path class="st7" d="M1052,264c0,45,0,91,0,136c-115,12-229,14-345,6c-5-1-10-1-15-2c-8,0-17-1-25-1c-147-15-293-18-439-3
			c0-45,0-91,0-136c115-12,229-14,345-6c5,1,10,1,15,2c8,0,17,1,25,1C760,276,906,279,1052,264L1052,264z"/>
	</g>
	<g class="st1">
		<path class="st8" d="M1052,400c0,17,0,35,0,52c-77,8-155,12-232,11c-28-1-57-1-85-3c-15-1-30-2-45-3c-155-17-308-22-462-5
			c0-17,0-35,0-52c77-8,155-12,232-11c28,1,57,1,85,3c15,1,30,2,45,3C745,412,898,417,1052,400L1052,400z"/>
	</g>
	<g class="st1">
		<path class="st9" d="M1052,452c0,23,0,46,0,69c-75,8-151,12-227,11c-30-1-61-1-91-3c-15-1-30-2-45-3c-77-8-152-14-228-16
			c-78-1-156,3-233,11c0-23,0-46,0-69c75-8,151-12,227-11c30,1,61,1,91,3c15,1,30,2,45,3c77,8,152,14,228,16
			C897,464,975,460,1052,452L1052,452z"/>
	</g>
	<g class="st1">
		<path class="st10" d="M1052,521c0,20,0,41,0,61c-75,8-151,12-227,11c-84-1-166-9-250-16c-116-10-232-7-347,5c0-20,0-41,0-61
			c75-8,151-12,227-11c84,1,166,9,250,16C821,536,937,533,1052,521L1052,521z"/>
	</g>
</g>
<g id="Eyes" class="st0">
	<path class="st11" d="M828.64,484.3C820.79,496.08,807.97,503,787,503c-54,0-54-45.89-54-102.5c0-40.22,0-75.02,19.36-91.8
		C740,327.25,740,357.87,740,392.5c0,56.61,0,102.5,54,102.5C809.64,495,820.75,491.15,828.64,484.3z"/>
	<path class="st12" d="M841,400.5c0,34.63,0,65.25-12.36,83.8c-7.89,6.85-19,10.7-34.64,10.7c-54,0-54-45.89-54-102.5
		c0-34.63,0-65.25,12.36-83.8c7.89-6.85,19-10.7,34.64-10.7C841,298,841,343.89,841,400.5z"/>
	<path class="st11" d="M542.98,484.08c-7.85,11.78-20.67,18.7-41.64,18.7c-54,0-54-45.89-54-102.5c0-40.22,0-75.02,19.36-91.8
		c-12.36,18.55-12.36,49.17-12.36,83.8c0,56.61,0,102.5,54,102.5C523.98,494.78,535.09,490.93,542.98,484.08z"/>
	<path class="st12" d="M555.34,400.28c0,34.63,0,65.25-12.36,83.8c-7.89,6.85-19,10.7-34.64,10.7c-54,0-54-45.89-54-102.5
		c0-34.63,0-65.25,12.36-83.8c7.89-6.85,19-10.7,34.64-10.7C555.34,297.78,555.34,343.67,555.34,400.28z"/>
	<path class="st11" d="M542.98,484.08c-7.85,11.78-20.67,18.7-41.64,18.7c-54,0-54-45.89-54-102.5c0-40.22,0-75.02,19.36-91.8
		c-12.36,18.55-12.36,49.17-12.36,83.8c0,56.61,0,102.5,54,102.5C523.98,494.78,535.09,490.93,542.98,484.08z"/>
	<path class="st12" d="M555.34,400.28c0,34.63,0,65.25-12.36,83.8c-7.89,6.85-19,10.7-34.64,10.7c-54,0-54-45.89-54-102.5
		c0-34.63,0-65.25,12.36-83.8c7.89-6.85,19-10.7,34.64-10.7C555.34,297.78,555.34,343.67,555.34,400.28z"/>
</g>
<g id="Eyes_Angry">
	<g>
		<path class="st13" d="M828.81,484.19c-7.85,11.78-20.67,18.7-41.64,18.7c-54,0-54-45.89-54-102.5c0-13.43,0-26.27,0.73-38.02
			l6.67-1.39c-0.4,9.9-0.4,20.46-0.4,31.41c0,56.61,0,102.5,54,102.5C809.81,494.89,820.92,491.04,828.81,484.19z"/>
	</g>
	<g>
		<path class="st14" d="M841.17,400.39c0,34.63,0,65.25-12.36,83.8c-7.89,6.85-19,10.7-34.64,10.7c-54,0-54-45.89-54-102.5
			c0-10.95,0-21.51,0.4-31.41l97.31-20.25h0.01C841.17,357.53,841.17,378.13,841.17,400.39z"/>
	</g>
	<path class="st15" d="M543.14,483.97c-7.85,11.78-20.67,18.7-41.64,18.7c-54,0-54-45.89-54-102.5c0-22.83,0-43.92,3.55-60.95
		l5.46,1.14c-2.01,15.2-2.01,32.91-2.01,51.81c0,56.61,0,102.5,54,102.5C524.14,494.67,535.25,490.82,543.14,483.97z"/>
	<path class="st16" d="M555.5,400.17c0,34.63,0,65.25-12.36,83.8c-7.89,6.85-19,10.7-34.64,10.7c-54,0-54-45.89-54-102.5
		c0-18.9,0-36.61,2.01-51.81l98.18,20.43C555.5,372.91,555.5,386.21,555.5,400.17z"/>
	<g>
		<path class="st13" d="M543.14,483.97c-7.85,11.78-20.67,18.7-41.64,18.7c-54,0-54-45.89-54-102.5c0-22.83,0-43.92,3.55-60.95
			l5.46,1.14c-2.01,15.2-2.01,32.91-2.01,51.81c0,56.61,0,102.5,54,102.5C524.14,494.67,535.25,490.82,543.14,483.97z"/>
	</g>
	<g>
		<path class="st14" d="M555.5,400.17c0,34.63,0,65.25-12.36,83.8c-7.89,6.85-19,10.7-34.64,10.7c-54,0-54-45.89-54-102.5
			c0-18.9,0-36.61,2.01-51.81l98.18,20.43C555.5,372.91,555.5,386.21,555.5,400.17z"/>
	</g>
</g>
<g id="Eyes_Confused" class="st0">
	<g class="st1">
		<path class="st17" d="M828.81,484.19c-7.85,11.78-20.67,18.7-41.64,18.7c-54,0-54-45.89-54-102.5c0-40.22,0-75.02,19.36-91.8
			c-12.36,18.55-12.36,49.17-12.36,83.8c0,56.61,0,102.5,54,102.5C809.81,494.89,820.92,491.04,828.81,484.19z"/>
	</g>
	<g class="st1">
		<path class="st18" d="M841.17,400.39c0,34.63,0,65.25-12.36,83.8c-7.89,6.85-19,10.7-34.64,10.7c-54,0-54-45.89-54-102.5
			c0-34.63,0-65.25,12.36-83.8c7.89-6.85,19-10.7,34.64-10.7C841.17,297.89,841.17,343.78,841.17,400.39z"/>
	</g>
	<g class="st1">
		<path class="st17" d="M541.14,483.97c-0.77,1.16-1.59,2.26-2.45,3.32c-7.84,9.56-19.81,15.16-38.11,15.37
			c-0.36,0.01-0.72,0.01-1.08,0.01c-54,0-54-45.89-54-102.5c0-9.87,0-19.42,0.29-28.46l2.03-0.91l4.84-2.19
			c-0.16,7.57-0.16,15.45-0.16,23.56c0,56.61,0,102.5,54,102.5c0.43,0,0.85,0,1.27-0.01c0.06,0.01,0.12,0.01,0.18,0
			C522.83,494.43,533.5,490.61,541.14,483.97z"/>
	</g>
	<g class="st1">
		<path class="st17" d="M553.5,400.17c0,34.63,0,65.25-12.36,83.8c-7.64,6.64-18.31,10.46-33.19,10.69c-0.06,0.01-0.12,0.01-0.18,0
			c-0.42,0.01-0.84,0.01-1.27,0.01c-54,0-54-45.89-54-102.5c0-8.11,0-15.99,0.16-23.56l2.02-0.91l91.59-41.28
			C553.5,345.06,553.5,371.21,553.5,400.17z"/>
	</g>
	<g class="st1">
		<path class="st17" d="M543.14,483.97c-7.85,11.78-20.67,18.7-41.64,18.7c-0.31,0-0.62,0-0.92-0.01
			c-53.08-0.51-53.08-46.2-53.08-102.49c0-10.21,0-20.07,0.32-29.37l4.84-2.19l2.02-0.91c-0.18,7.84-0.18,16.04-0.18,24.47
			c0,56.35,0,102.08,53.27,102.49c0.06,0.01,0.12,0.01,0.18,0c0.18,0.01,0.37,0.01,0.55,0.01c12.9,0,22.72-2.62,30.19-7.38
			C540.28,486.28,541.76,485.17,543.14,483.97z"/>
	</g>
	<g class="st1">
		<path class="st18" d="M555.5,400.17c0,34.63,0,65.25-12.36,83.8c-1.38,1.2-2.86,2.31-4.45,3.32c-7.47,4.76-17.29,7.38-30.19,7.38
			c-0.18,0-0.37,0-0.55-0.01c-0.06,0.01-0.12,0.01-0.18,0c-53.27-0.41-53.27-46.14-53.27-102.49c0-8.43,0-16.63,0.18-24.47
			l91.59-41.28l1.7-0.76C555.5,344.34,555.5,370.82,555.5,400.17z"/>
	</g>
</g>
<g id="Buttons" class="st0">
	<circle class="st19" cx="1021.78" cy="689.21" r="25.5"/>
	<circle class="st19" cx="950.78" cy="689.21" r="25.5"/>
	<circle class="st19" cx="877.78" cy="691.21" r="25.5"/>
	<g class="st1">
		<path class="st18" d="M1045.88,696.39c-0.06,0.16-0.11,0.31-0.18,0.47l-46.18-16.33c0.05-0.16,0.1-0.31,0.16-0.47
			c4.51-12.76,18.51-19.44,31.27-14.93C1043.71,669.63,1050.39,683.63,1045.88,696.39z"/>
	</g>
	<g class="st1">
		<path class="st17" d="M1045.7,696.85c-4.68,12.45-18.5,18.91-31.09,14.46c-12.6-4.46-19.27-18.17-15.08-30.79L1045.7,696.85z"/>
	</g>
	<g class="st1">
		<path class="st14" d="M974.83,696.52c-0.06,0.16-0.11,0.31-0.18,0.47l-46.08-16.61c0.05-0.16,0.1-0.31,0.16-0.47
			c4.59-12.73,18.63-19.33,31.36-14.74C972.82,669.76,979.42,683.8,974.83,696.52z"/>
	</g>
	<g class="st1">
		<path class="st13" d="M974.65,696.99c-4.76,12.42-18.61,18.8-31.18,14.27s-19.16-18.28-14.9-30.88L974.65,696.99z"/>
	</g>
	<path class="st12" d="M901.83,699.72c-0.07,0.16-0.13,0.3-0.2,0.46l-45.16-18.97c0.06-0.16,0.12-0.31,0.18-0.46
		c5.24-12.47,19.6-18.34,32.08-13.1C901.2,672.89,907.07,687.25,901.83,699.72z"/>
	<path class="st20" d="M901.44,700.34c-5.5,12.11-19.72,17.64-31.99,12.36c-12.27-5.28-18.02-19.41-13-31.73L901.44,700.34z"/>
	<ellipse class="st21" cx="603.05" cy="691.21" rx="7.77" ry="24.5"/>
	<ellipse class="st21" cx="679.52" cy="691.21" rx="7.77" ry="24.5"/>
	<ellipse class="st21" cx="642.48" cy="691.21" rx="7.77" ry="24.5"/>
</g>
</svg>
