<?xml version="1.0" encoding="utf-8"?>
<!-- Generator: Adobe Illustrator 24.2.3, SVG Export Plug-In . SVG Version: 6.00 Build 0)  -->
<svg version="1.1" xmlns="http://www.w3.org/2000/svg" xmlns:xlink="http://www.w3.org/1999/xlink" x="0px" y="0px"
	 viewBox="0 0 1280 1024" style="enable-background:new 0 0 1280 1024;" xml:space="preserve">
<style type="text/css">
	.st0{fill:#C3DFE0;}
	.st1{fill:#A1CDCE;}
	.st2{fill:#4F5356;}
	.st3{fill:#4B4F52;}
	.st4{fill:#414649;}
	.st5{fill:#393E41;}
	.st6{fill:#3F4447;}
	.st7{fill:#454A4C;}
	.st8{fill:#575B5D;}
	.st9{display:none;}
	.st10{display:inline;fill:#5CE24A;}
	.st11{display:inline;fill:#5CF64A;}
	.st12{display:inline;}
	.st13{fill:#CC1C24;}
	.st14{fill:#ED1C24;}
	.st15{fill:#F77F1E;}
	.st16{fill:#F7931E;}
	.st17{opacity:0.39;fill:#4B4F52;}
	.st18{fill:#5CF64A;}
	.st19{fill:#5CE74A;}
	.st20{fill:#363436;}
</style>
<g id="Frame">
	<g>
		<path class="st0" d="M1247,144.91v503.61L35,500.84V144.91C35,114.59,59.59,90,89.91,90h1102.17
			C1222.41,90,1247,114.59,1247,144.91z"/>
	</g>
	<g>
		<path class="st1" d="M1247,648.53V879.9c0,30.33-24.59,54.91-54.91,54.91H89.91C59.59,934.81,35,910.23,35,879.9V500.84
			L1247,648.53z"/>
	</g>
</g>
<g id="Screen">
	<g>
		<path class="st2" d="M1209.73,611.79v72.89c0,22.27-18.04,40.31-40.31,40.31H112.58c-22.27,0-40.31-18.04-40.31-40.31v-72.89
			H1209.73z"/>
	</g>
	<g>
		<rect x="72.27" y="182.49" class="st2" width="1137.46" height="461.06"/>
	</g>
	<g>
		<path class="st3" d="M1209.73,181.5v31.36H72.27V181.5c0-26.9,18.04-48.71,40.31-48.71h1056.84
			C1191.69,132.79,1209.73,154.59,1209.73,181.5z"/>
	</g>
	<g>
		<path class="st4" d="M1210,199c0,16,0,31,0,47c-165,18-330,21-497,6c-105-9-208-19-312-21c-110-2-220,4-329,15c0-16,0-31,0-47
			c83-9,167-13,251-15c82-1,164,2,246,8c47,4,92,9,139,13C876,219,1043,216,1210,199L1210,199z"/>
	</g>
	<g>
		<path class="st5" d="M1210,246c0,63,0,125,0,188c-110,10-220,16-330,14c-111-2-220-13-331-22c-40-3-79-4-118-6c-16-1-33,0-49,0
			c-104-2-207,2-310,14c0-63,0-125,0-188c216-23,435-16,651,7C885,264,1048,263,1210,246L1210,246z"/>
	</g>
	<g>
		<path class="st6" d="M1210,434c0,24,0,48,0,72c-74,7-148,12-222,14c-85,1-170,0-256-6c-92-7-182-18-273-22c-56-2-112-1-168,0
			c-73,1-146,5-219,14c0-24,0-48,0-72c162-17,325-20,488-8c53,4,106,10,159,15c35,3,69,4,104,6c30,1,59,1,89,1
			C1012,449,1111,444,1210,434L1210,434z"/>
	</g>
	<g>
		<path class="st7" d="M1210,506c0,32,0,63,0,95c-117,12-235,16-353,14c-32-1-63-2-95-4c-24-2-47-3-71-5c-42-5-82-8-124-12
			c-20-2-39-3-59-4c-35-2-69-3-104-4c-111-2-222,3-332,15c0-32,0-63,0-95c115-13,232-16,348-14c95,1,189,11,285,19
			C874,526,1042,522,1210,506L1210,506z"/>
	</g>
	<g>
		<path class="st8" d="M1210,601c0,28,0,56,0,84c-160,17-321,20-483,8c-73-6-146-15-219-19c-81-4-161-6-242-2c-65,2-130,6-194,13
			c0-28,0-56,0-84c79-9,158-13,237-15s157,1,236,6c5,1,10,1,15,2c8,0,17,1,25,1c72,7,142,14,213,18c38,2,76,2,114,3
			C1012,616,1111,611,1210,601L1210,601z"/>
	</g>
</g>
<g id="Eyes" class="st9">
	<path class="st10" d="M901.4,550.09c-10.84,16.26-28.53,25.81-57.48,25.81c-74.54,0-74.54-63.35-74.54-141.49
		c0-55.52,0-103.56,26.72-126.72c-17.06,25.61-17.06,67.87-17.06,115.68c0,78.14,0,141.49,74.54,141.49
		C875.17,564.86,890.51,559.55,901.4,550.09z"/>
	<path class="st11" d="M918.46,434.41c0,47.8,0,90.07-17.06,115.68c-10.89,9.46-26.23,14.77-47.82,14.77
		c-74.54,0-74.54-63.35-74.54-141.49c0-47.8,0-90.07,17.06-115.68c10.89-9.46,26.23-14.77,47.82-14.77
		C918.46,292.92,918.46,356.27,918.46,434.41z"/>
	<path class="st10" d="M507.07,549.78c-10.84,16.26-28.53,25.81-57.48,25.81c-74.54,0-74.54-63.35-74.54-141.49
		c0-55.52,0-103.56,26.72-126.72c-17.06,25.61-17.06,67.87-17.06,115.68c0,78.14,0,141.49,74.54,141.49
		C480.84,564.55,496.18,559.24,507.07,549.78z"/>
	<path class="st11" d="M524.13,434.11c0,47.8,0,90.07-17.06,115.68c-10.89,9.46-26.23,14.77-47.82,14.77
		c-74.54,0-74.54-63.35-74.54-141.49c0-47.8,0-90.07,17.06-115.68c10.89-9.46,26.23-14.77,47.82-14.77
		C524.13,292.61,524.13,355.96,524.13,434.11z"/>
	<path class="st10" d="M507.07,549.78c-10.84,16.26-28.53,25.81-57.48,25.81c-74.54,0-74.54-63.35-74.54-141.49
		c0-55.52,0-103.56,26.72-126.72c-17.06,25.61-17.06,67.87-17.06,115.68c0,78.14,0,141.49,74.54,141.49
		C480.84,564.55,496.18,559.24,507.07,549.78z"/>
	<path class="st11" d="M524.13,434.11c0,47.8,0,90.07-17.06,115.68c-10.89,9.46-26.23,14.77-47.82,14.77
		c-74.54,0-74.54-63.35-74.54-141.49c0-47.8,0-90.07,17.06-115.68c10.89-9.46,26.23-14.77,47.82-14.77
		C524.13,292.61,524.13,355.96,524.13,434.11z"/>
</g>
<g id="Eyes_Angry" class="st9">
	<g class="st12">
		<path class="st13" d="M901.64,549.94c-10.84,16.26-28.53,25.81-57.48,25.81c-74.54,0-74.54-63.35-74.54-141.49
			c0-18.54,0-36.26,1.01-52.48l9.21-1.92c-0.55,13.67-0.55,28.24-0.55,43.36c0,78.14,0,141.49,74.54,141.49
			C875.41,564.71,890.74,559.39,901.64,549.94z"/>
	</g>
	<g class="st12">
		<path class="st14" d="M918.7,434.26c0,47.8,0,90.07-17.06,115.68c-10.89,9.46-26.23,14.77-47.82,14.77
			c-74.54,0-74.54-63.35-74.54-141.49c0-15.12,0-29.69,0.55-43.36l134.33-27.95h0.01C918.7,375.1,918.7,403.53,918.7,434.26z"/>
	</g>
	<path class="st10" d="M507.29,549.64c-10.84,16.26-28.53,25.81-57.48,25.81c-74.54,0-74.54-63.35-74.54-141.49
		c0-31.51,0-60.63,4.9-84.14l7.54,1.57c-2.77,20.98-2.77,45.43-2.77,71.52c0,78.14,0,141.49,74.54,141.49
		C481.07,564.41,496.4,559.09,507.29,549.64z"/>
	<path class="st11" d="M524.36,433.96c0,47.8,0,90.07-17.06,115.68c-10.89,9.46-26.23,14.77-47.82,14.77
		c-74.54,0-74.54-63.35-74.54-141.49c0-26.09,0-50.54,2.77-71.52l135.53,28.2C524.36,396.33,524.36,414.69,524.36,433.96z"/>
	<g class="st12">
		<path class="st13" d="M507.29,549.64c-10.84,16.26-28.53,25.81-57.48,25.81c-74.54,0-74.54-63.35-74.54-141.49
			c0-31.51,0-60.63,4.9-84.14l7.54,1.57c-2.77,20.98-2.77,45.43-2.77,71.52c0,78.14,0,141.49,74.54,141.49
			C481.07,564.41,496.4,559.09,507.29,549.64z"/>
	</g>
	<g class="st12">
		<path class="st14" d="M524.36,433.96c0,47.8,0,90.07-17.06,115.68c-10.89,9.46-26.23,14.77-47.82,14.77
			c-74.54,0-74.54-63.35-74.54-141.49c0-26.09,0-50.54,2.77-71.52l135.53,28.2C524.36,396.33,524.36,414.69,524.36,433.96z"/>
	</g>
</g>
<g id="Eyes_Confused">
	<g>
		<path class="st15" d="M901.63,549.94c-10.84,16.26-28.53,25.81-57.48,25.81c-74.54,0-74.54-63.35-74.54-141.49
			c0-55.52,0-103.56,26.72-126.72c-17.06,25.61-17.06,67.87-17.06,115.68c0,78.14,0,141.49,74.54,141.49
			C875.41,564.71,890.74,559.39,901.63,549.94z"/>
	</g>
	<g>
		<path class="st16" d="M918.69,434.26c0,47.8,0,90.07-17.06,115.68c-10.89,9.46-26.23,14.77-47.82,14.77
			c-74.54,0-74.54-63.35-74.54-141.49c0-47.8,0-90.07,17.06-115.68c10.89-9.46,26.23-14.77,47.82-14.77
			C918.69,292.77,918.69,356.11,918.69,434.26z"/>
	</g>
	<g>
		<path class="st15" d="M504.53,549.64c-1.06,1.6-2.19,3.12-3.38,4.58c-10.82,13.2-27.35,20.93-52.61,21.22
			c-0.5,0.01-0.99,0.01-1.49,0.01c-74.54,0-74.54-63.35-74.54-141.49c0-13.62,0-26.81,0.4-39.29l2.8-1.26l6.68-3.02
			c-0.22,10.45-0.22,21.33-0.22,32.52c0,78.14,0,141.49,74.54,141.49c0.59,0,1.17,0,1.75-0.01c0.08,0.01,0.17,0.01,0.25,0
			C479.26,564.07,493.99,558.8,504.53,549.64z"/>
	</g>
	<g>
		<path class="st15" d="M521.59,433.96c0,47.8,0,90.07-17.06,115.68c-10.55,9.17-25.28,14.44-45.82,14.76
			c-0.08,0.01-0.17,0.01-0.25,0c-0.58,0.01-1.16,0.01-1.75,0.01c-74.54,0-74.54-63.35-74.54-141.49c0-11.2,0-22.07,0.22-32.52
			l2.79-1.26l126.43-56.98C521.59,357.88,521.59,393.98,521.59,433.96z"/>
	</g>
	<g>
		<path class="st15" d="M507.29,549.64c-10.84,16.26-28.53,25.81-57.48,25.81c-0.43,0-0.86,0-1.27-0.01
			c-73.27-0.7-73.27-63.77-73.27-141.48c0-14.09,0-27.7,0.44-40.54l6.68-3.02l2.79-1.26c-0.25,10.82-0.25,22.14-0.25,33.78
			c0,77.79,0,140.91,73.53,141.48c0.08,0.01,0.17,0.01,0.25,0c0.25,0.01,0.51,0.01,0.76,0.01c17.81,0,31.36-3.62,41.67-10.19
			C503.35,552.82,505.39,551.29,507.29,549.64z"/>
	</g>
	<g>
		<path class="st16" d="M524.36,433.96c0,47.8,0,90.07-17.06,115.68c-1.9,1.66-3.95,3.19-6.14,4.58
			c-10.31,6.57-23.87,10.19-41.67,10.19c-0.25,0-0.51,0-0.76-0.01c-0.08,0.01-0.17,0.01-0.25,0
			c-73.53-0.57-73.53-63.69-73.53-141.48c0-11.64,0-22.96,0.25-33.78l126.43-56.98l2.35-1.05
			C524.36,356.89,524.36,393.44,524.36,433.96z"/>
	</g>
</g>
<g id="Buttons">
	<circle class="st17" cx="1168.02" cy="832.96" r="35.2"/>
	<circle class="st17" cx="1070.01" cy="832.96" r="35.2"/>
	<circle class="st17" cx="969.24" cy="835.72" r="35.2"/>
	<g>
		<path class="st16" d="M1201.28,842.86c-0.08,0.22-0.15,0.43-0.24,0.65l-63.74-22.55c0.07-0.23,0.14-0.43,0.22-0.66
			c6.23-17.61,25.56-26.83,43.16-20.6C1198.28,805.92,1207.51,825.25,1201.28,842.86z"/>
	</g>
	<g>
		<path class="st15" d="M1201.04,843.5c-6.46,17.19-25.53,26.11-42.92,19.96c-17.39-6.15-26.61-25.08-20.82-42.51L1201.04,843.5z"/>
	</g>
	<g>
		<path class="st14" d="M1103.2,843.05c-0.08,0.22-0.15,0.43-0.25,0.64l-63.6-22.93c0.07-0.23,0.14-0.43,0.22-0.65
			c6.33-17.57,25.72-26.68,43.29-20.35C1100.43,806.1,1109.54,825.48,1103.2,843.05z"/>
	</g>
	<g>
		<path class="st13" d="M1102.95,843.69c-6.56,17.15-25.69,25.96-43.04,19.7c-17.35-6.25-26.46-25.24-20.57-42.63L1102.95,843.69z"
			/>
	</g>
	<path class="st18" d="M1002.43,847.46c-0.09,0.22-0.18,0.42-0.28,0.63l-62.34-26.19c0.08-0.22,0.16-0.43,0.25-0.64
		c7.23-17.22,27.06-25.32,44.28-18.08C1001.57,810.42,1009.66,830.24,1002.43,847.46z"/>
	<path class="st19" d="M1001.89,848.31c-7.59,16.72-27.22,24.35-44.15,17.06c-16.94-7.3-24.88-26.8-17.94-43.8L1001.89,848.31z"/>
	<path class="st20" d="M600.48,842.61c-1.01,15.38-5.31,26.92-10.49,26.92c-5.92,0-10.73-15.13-10.73-33.82
		c0-5.27,0.39-10.26,1.08-14.7c-0.15,2.21-0.22,4.49-0.22,6.82c0,18.68,4.79,33.82,10.71,33.82
		C595.07,861.65,598.75,853.88,600.48,842.61z"/>
	<path class="st5" d="M600.71,835.71c0,2.33-0.07,4.61-0.22,6.82c0.01,0.03,0,0.06,0,0.08c-1.74,11.26-5.41,19.04-9.65,19.04
		c-5.92,0-10.71-15.14-10.71-33.82c0-2.33,0.07-4.61,0.22-6.82v-0.08c1.74-11.26,5.41-19.04,9.65-19.04
		C595.92,801.89,600.71,817.03,600.71,835.71z"/>
	<path class="st20" d="M706.69,843.39c-1.01,15.38-5.31,26.92-10.49,26.92c-5.92,0-10.73-15.13-10.73-33.82
		c0-5.27,0.39-10.26,1.08-14.7c-0.15,2.21-0.22,4.49-0.22,6.82c0,18.68,4.79,33.82,10.71,33.82
		C701.28,862.43,704.95,854.66,706.69,843.39z"/>
	<path class="st5" d="M706.91,836.49c0,2.33-0.07,4.61-0.22,6.82c0.01,0.03,0,0.06,0,0.08c-1.74,11.26-5.41,19.04-9.65,19.04
		c-5.92,0-10.71-15.14-10.71-33.82c0-2.33,0.07-4.61,0.22-6.82v-0.08c1.74-11.26,5.41-19.04,9.65-19.04
		C702.12,802.67,706.91,817.81,706.91,836.49z"/>
	<path class="st20" d="M655.62,842.73c-1.01,15.38-5.31,26.92-10.49,26.92c-5.92,0-10.73-15.13-10.73-33.82
		c0-5.27,0.39-10.26,1.08-14.7c-0.15,2.21-0.22,4.49-0.22,6.82c0,18.68,4.79,33.82,10.71,33.82
		C650.21,861.76,653.88,853.99,655.62,842.73z"/>
	<path class="st5" d="M655.84,835.82c0,2.33-0.07,4.61-0.22,6.82c0.01,0.03,0,0.06,0,0.08c-1.74,11.26-5.41,19.04-9.65,19.04
		c-5.92,0-10.71-15.14-10.71-33.82c0-2.33,0.07-4.61,0.22-6.82v-0.08c1.74-11.26,5.41-19.04,9.65-19.04
		C651.05,802,655.84,817.15,655.84,835.82z"/>
</g>
</svg>
